<?xml version="1.0" standalone="no"?>
<!DOCTYPE svg PUBLIC "-//W3C//DTD SVG 20010904//EN"
 "http://www.w3.org/TR/2001/REC-SVG-20010904/DTD/svg10.dtd">
<svg version="1.0" xmlns="http://www.w3.org/2000/svg"
 width="500.000000pt" height="500.000000pt" viewBox="0 0 500.000000 500.000000"
 preserveAspectRatio="xMidYMid meet">
<metadata>
Created by potrace 1.14, written by Peter Selinger 2001-2017
</metadata>
<g transform="translate(0.000000,500.000000) scale(0.100000,-0.100000)"
fill="#000000" stroke="none">
<path d="M128 4903 c-14 -9 -31 -27 -37 -40 -8 -17 -11 -715 -11 -2364 0
-2166 1 -2343 17 -2369 9 -16 27 -33 40 -39 17 -8 703 -11 2364 -11 2166 0
2343 1 2369 17 16 9 33 27 39 40 8 17 11 703 11 2364 0 2166 -1 2343 -17 2369
-9 16 -27 33 -40 39 -17 8 -703 11 -2366 11 -2164 -1 -2344 -2 -2369 -17z"/>
</g>
</svg>
